#N canvas 302 72 588 527 10;
#X declare -lib pdlua;
#X declare -path src;
#X obj 52 36 declare -lib pdlua;
#X obj 53 259 nbx 5 16 -1e+37 1e+37 0 0 empty empty empty 0 -9 0 10 #fcfcfc #000000 #000000 0 256;
#X msg 64 114 1 2 3 4 5;
#X msg 74 137 1 2 3;
#X obj 53 163 bhack.mklist;
#X obj 53 237 bhack.length;
#X obj 136 237 bhack.depth;
#X obj 136 259 nbx 5 16 -1e+37 1e+37 0 0 empty empty empty 0 -9 0 10 #fcfcfc #000000 #000000 0 256;
#X msg 53 81 list [1 [2 2 3] [3 3 4 5] [1 [2 [3 2]]] 4];
#X obj 216 237 bhack.iterate;
#X obj 216 313 bhack.topd;
#X obj 216 335 + 10;
#X obj 216 374 bhack.collect;
#X obj 216 396 bhack.print;
#X obj 52 55 declare -path src;
#X msg 313 153 reload;
#X obj 312 299 bhack.chord;
#X msg 325 178 notes C4 A#4 E5;
#X msg 341 204 notes C4 Bb4 Ab4 E5;
#X msg 227 163 1 2 3 4 5;
#X msg 237 186 1 2 3;
#X obj 216 212 bhack.mklist;
#X msg 352 228 notes C4 G+5 D#+5 Eb4;
#X msg 360 252 notes C4 G-5 D-5 Eb4;
#X connect 2 0 4 0;
#X connect 3 0 4 0;
#X connect 4 0 5 0;
#X connect 4 0 6 0;
#X connect 5 0 1 0;
#X connect 6 0 7 0;
#X connect 8 0 4 0;
#X connect 9 0 10 0;
#X connect 9 1 12 1;
#X connect 10 0 11 0;
#X connect 11 0 12 0;
#X connect 12 0 13 0;
#X connect 15 0 16 0;
#X connect 17 0 16 0;
#X connect 18 0 16 0;
#X connect 19 0 21 0;
#X connect 20 0 21 0;
#X connect 21 0 9 0;
#X connect 22 0 16 0;
#X connect 23 0 16 0;
