#N canvas 308 119 714 569 10;
#X declare -path src;
#X declare -lib else;
#X obj 53 259 nbx 5 16 -1e+37 1e+37 0 0 empty empty empty 0 -9 0 10 #fcfcfc #000000 #000000 0 256;
#X msg 64 114 1 2 3 4 5;
#X msg 74 137 1 2 3;
#X obj 53 237 bhack.length;
#X obj 136 237 bhack.depth;
#X obj 136 259 nbx 5 16 -1e+37 1e+37 0 0 empty empty empty 0 -9 0 10 #fcfcfc #000000 #000000 0 256;
#X msg 53 81 list [1 [2 2 3] [3 3 4 5] [1 [2 [3 2]]] 4];
#X obj 216 237 bhack.iterate;
#X obj 216 313 bhack.topd;
#X obj 216 335 + 10;
#X obj 216 374 bhack.collect;
#X obj 216 396 bhack.print;
#X obj 511 95 declare -path src;
#X msg 313 153 reload;
#X msg 227 163 1 2 3 4 5;
#X msg 237 186 1 2 3;
#X obj 511 76 declare -lib else;
#X msg 325 178 list C4 A#4 E5;
#X msg 341 204 list C4 Bb4 Ab4 E5;
#X msg 352 228 list C4 G+5 D#+5 Eb4;
#X msg 360 252 list C4 G-5 D-5 Eb4;
#X obj 312 299 bhack.chords;
#X obj 53 163 bhack.define;
#X obj 216 212 bhack.define;
#X connect 1 0 22 0;
#X connect 2 0 22 0;
#X connect 3 0 0 0;
#X connect 4 0 5 0;
#X connect 6 0 22 0;
#X connect 7 0 8 0;
#X connect 7 1 10 1;
#X connect 8 0 9 0;
#X connect 9 0 10 0;
#X connect 10 0 11 0;
#X connect 13 0 21 0;
#X connect 14 0 23 0;
#X connect 15 0 23 0;
#X connect 17 0 21 0;
#X connect 18 0 21 0;
#X connect 19 0 21 0;
#X connect 20 0 21 0;
#X connect 22 0 3 0;
#X connect 22 0 4 0;
#X connect 23 0 7 0;
