#N canvas 0 0 925 1009 10;
#X declare -lib pdlua;
#X declare -path src;
#X obj 3 3 declare -lib pdlua;
#X obj 4 226 nbx 5 16 -1e+37 1e+37 0 0 empty empty empty 0 -9 0 10 #fcfcfc #000000 #000000 0 256;
#X msg 15 81 1 2 3 4 5;
#X msg 25 104 1 2 3;
#X obj 4 130 bhack.mklist;
#X obj 4 204 bhack.length;
#X obj 87 204 bhack.depth;
#X obj 87 226 nbx 5 16 -1e+37 1e+37 0 0 empty empty empty 0 -9 0 10 #fcfcfc #000000 #000000 0 256;
#X msg 4 48 list [1 [2 2 3] [3 3 4 5] [1 [2 [3 2]]] 4];
#X obj 167 204 bhack.iterate;
#X obj 167 280 bhack.topd;
#X obj 167 302 + 10;
#X obj 167 341 bhack.collect;
#X obj 167 363 bhack.print;
#X obj 3 22 declare -path src;
#X obj 264 203 bhack.score;
#X msg 264 168 reload;
#X connect 2 0 4 0;
#X connect 3 0 4 0;
#X connect 4 0 5 0;
#X connect 4 0 6 0;
#X connect 4 0 9 0;
#X connect 5 0 1 0;
#X connect 6 0 7 0;
#X connect 8 0 4 0;
#X connect 9 0 10 0;
#X connect 9 1 12 1;
#X connect 10 0 11 0;
#X connect 11 0 12 0;
#X connect 12 0 13 0;
#X connect 16 0 15 0;
