#N canvas 0 0 925 545 10;
#X declare -path ../src/;
#X declare -lib xlab;
#X obj 5 24 declare -path ../src/;
#X obj 5 298 bhack.voice -playchords;
#X obj 5 44 r again;
#N canvas 0 0 925 1132 create-trees 0;
#X obj 4 3 inlet;
#X obj 4 536 outlet;
#X obj 4 73 bhack.arithmser 1 1 1, f 22;
#X obj 4 47 t b f, f 12;
#X obj 4 95 bhack.iterate;
#X obj 232 319 bhack.define;
#X obj 295 362 bhack.length;
#X obj 232 341 t a a, f 11;
#X obj 295 384 expr random(0 \, $f1) + 1;
#X obj 232 412 bhack.nth 1;
#X obj 158 222 bhack.arithmser 1 4 1, f 22;
#X obj 157 243 bhack.iterate;
#X obj 232 267 t b;
#X obj 157 445 bhack.collect;
#X obj 205 155 expr random(3 \, 6);
#X obj 37 312 bhack.define;
#X msg 37 269 list \$1 4;
#X obj 37 231 f;
#X obj 79 116 t b b b, f 22;
#X obj 205 177 t f f;
#X obj 79 467 bhack.list 2;
#X msg 232 297 list (1 (1 2 1)) (1 (1 3)) (1 (3 1)) (1 (1 1 1 1));
#X obj 232 198 / 2;
#X obj 4 501 bhack.collect;
#X obj 4 25 expr random(3 \, 5);
#X connect 0 0 24 0;
#X connect 2 0 4 0;
#X connect 3 0 2 0;
#X connect 3 1 2 1;
#X connect 4 0 23 0;
#X connect 4 1 18 0;
#X connect 5 0 7 0;
#X connect 6 0 8 0;
#X connect 7 0 9 0;
#X connect 7 1 6 0;
#X connect 8 0 9 1;
#X connect 9 0 13 1;
#X connect 10 0 11 0;
#X connect 11 0 13 0;
#X connect 11 1 12 0;
#X connect 12 0 21 0;
#X connect 13 0 20 1;
#X connect 14 0 19 0;
#X connect 15 0 20 0;
#X connect 16 0 15 0;
#X connect 17 0 16 0;
#X connect 18 0 17 0;
#X connect 18 1 10 0;
#X connect 18 2 14 0;
#X connect 19 0 17 1;
#X connect 19 1 22 0;
#X connect 20 0 23 1;
#X connect 21 0 5 0;
#X connect 22 0 10 1;
#X connect 23 0 1 0;
#X connect 24 0 3 0;
#X restore 5 79 pd create-trees;
#X obj 62 46 bng 18 250 50 0 empty empty empty 0 -9 0 10 #fcfcfc #000000 #000000;
#X msg 100 265 reload;
#X obj 5 4 declare -lib xlab;
#X obj 18 266 bhack.define;
#X msg 159 268 play;
#N canvas 0 0 925 545 12/04 1;
#X msg 85 150 list ((5 4) (1 1 1 1 1 1));
#X msg 78 130 list ((5 4) (1 1 1));
#X msg 69 110 list ((6 8) ((1 (1 1)) (1 (1 1)) (1 (1 1))));
#X msg 48 71 list ((6 8) (3 3));
#X msg 110 194 list ((4 4) (1 (1 (1 2 1 1 1 1 1 1)) 2));
#X msg 136 218 list ((4 4) (1 (1 (1 1 1)) 2));
#X msg 147 245 list ((4 4) (2 (1 (1 1 1)) 1));
#X msg 159 268 list ((3 4) (1));
#X obj 48 538 outlet;
#X msg 176 294 list ((4 4) (1 (1 (1 (2 (1 1 1)) 1 -1 1 1 1 1)) 2));
#X msg 59 91 list ((6 8) ((1 (1 -1 1)) (1 (1 1 1))));
#X msg 188 318 list ((5 4) ((1 (3 1)) (1 (1 3))));
#X msg 96 170 list ((5 4) (1 1 -1 2 1 1));
#X msg 8 9 list ((6 8) (1));
#X msg 38 49 list ((13 8) (1));
#X msg 23 29 list ((5 4) (1));
#X msg 199 342 list ((3 4) ((1 (1 3))));
#X msg 206 363 list ((3 4) (1 3));
#X msg 209 392 list ((5 4) ((1 (3 -1)) (1 (1 3))));
#X msg 220 418 list ((5 4) (1 (1 (1 1 1)) 1 1));
#X msg 227 442 list ((5 4) (1 1));
#X msg 239 469 list ((5 4) (2 (2 (1 1 1)) 1));
#X msg 248 489 list ((4 4) ((2 (1 -1 1)) 2));
#X connect 0 0 8 0;
#X connect 1 0 8 0;
#X connect 2 0 8 0;
#X connect 3 0 8 0;
#X connect 4 0 8 0;
#X connect 5 0 8 0;
#X connect 6 0 8 0;
#X connect 7 0 8 0;
#X connect 9 0 8 0;
#X connect 10 0 8 0;
#X connect 11 0 8 0;
#X connect 12 0 8 0;
#X connect 13 0 8 0;
#X connect 14 0 8 0;
#X connect 15 0 8 0;
#X connect 16 0 8 0;
#X connect 17 0 8 0;
#X connect 18 0 8 0;
#X connect 19 0 8 0;
#X connect 20 0 8 0;
#X connect 21 0 8 0;
#X connect 22 0 8 0;
#X restore 18 193 pd 12/04;
#X f 12;
#X obj 216 187 bhack.define;
#X msg 217 164 list (C5) (C5) (C5) (C5) (C5) (C5) (C5);
#X obj 87 109 bhack.iterate;
#X obj 87 142 bhack.print;
#X obj 165 474 else/autotune;
#X msg 38 224 list ((5 4) (2 (2 (1 1 1)) 1));
#X connect 2 0 3 0;
#X connect 3 0 1 0;
#X connect 3 0 12 0;
#X connect 4 0 3 0;
#X connect 5 0 1 0;
#X connect 7 0 1 0;
#X connect 8 0 1 0;
#X connect 9 0 7 0;
#X connect 10 0 1 1;
#X connect 11 0 10 0;
#X connect 12 1 13 0;
#X connect 15 0 7 0;
