#N canvas 0 0 925 1132 10;
#X declare -lib xlab;
#X declare -path ../src;
#X obj 220 6 declare -lib xlab;
#X obj 5 137 bhack.define;
#X obj 6 240 bhack.voice -playchords;
#X msg 138 139 reload;
#X obj 328 4 declare -path ../src;
#X msg 6 6 list ((4 4) (2 (2 (1 1 1))));
#X obj 249 210 bhack.define;
#X msg 227 55 list (C4) (D4) (E4) (F4);
#X msg 18 40 list ((4 4) ((2 (1 1)) (2 (1 1))));
#X msg 38 93 list ((4 4) (1 (1 (1 -1 1)) 1 1));
#X connect 1 0 2 0;
#X connect 3 0 2 0;
#X connect 5 0 1 0;
#X connect 6 0 2 1;
#X connect 7 0 6 0;
#X connect 8 0 1 0;
#X connect 9 0 1 0;
