#N canvas 0 0 925 1132 10;
#X declare -lib xlab;
#X msg 129 118 1 2 3;
#X msg 108 66 1 [2 2 3] [3 3 4 5] [1 [2 [3 2]]] 4;
#X text 97 24 Iterate trough the top level of an llll.;
#X obj 108 175 bhack.iterate;
#X msg 119 95 list [1 2] [2 3] [4 5];
#X obj 108 144 bhack.define;
#X obj 303 155 declare -lib xlab;
#X obj 183 218 bhack.print;
#X connect 0 0 5 0;
#X connect 1 0 5 0;
#X connect 3 1 7 0;
#X connect 4 0 5 0;
#X connect 5 0 3 0;
