#N canvas 0 0 925 1009 10;
#X declare -lib else;
#X obj 529 6 declare -lib else;
#N canvas 584 294 693 584 example2 0;
#X msg 301 227 reload;
#X msg 152 194 clef g;
#X msg 203 194 clef c;
#X msg 251 194 clef f;
#X msg 311 194 clef gf;
#X text 364 194 Not implemented;
#X obj 90 264 bhack.chords;
#X obj 121 133 loadbang;
#X obj 89 102 bhack.define;
#X msg 117 69 list C4 Eb4 A+5;
#X msg 104 46 list C4 Eb4 A#+5 C4 Eb4 A#+5 C4 Eb4 A#+5 c4 Eb5;
#X msg 91 21 list C4 E-4 D6;
#X msg 121 155 size 475 120;
#X connect 0 0 6 0;
#X connect 1 0 6 0;
#X connect 2 0 6 0;
#X connect 3 0 6 0;
#X connect 4 0 6 0;
#X connect 7 0 12 0;
#X connect 8 0 6 0;
#X connect 9 0 8 0;
#X connect 10 0 8 0;
#X connect 11 0 8 0;
#X connect 12 0 6 0;
#X restore 414 193 pd example2;
#X obj 17 346 bhack.chords;
#X obj 17 253 bhack.define;
#X msg 101 167 list [Ab4 A-5] [Ab5 C5 F5];
#X msg 30 288 reload;
#X msg 106 203 list [A#+4 Ab-5] [Ab5 C5 F5];
#X text 341 6 Regras para varios acidentes;
#X text 219 40 Regra para cluster;
#X text 536 55 Plot chords.;
#X msg 58 82 list [C4 Db4 E4] [C4 F4 A4] [G4 Ab4 B4];
#X msg 37 315 clef g;
#X msg 114 290 size 400 100;
#X msg 42 40 list [C4 D-4 E4] [Ab5 C5 F5];
#X msg 52 60 list [C4 D4 E4] [C4 F+4 A4];
#X msg 84 106 list C4 Ebvv4 G4;
#X text 251 136 96edo;
#X msg 17 8 list [C4 D-4 Gb5 Db5 B4 G#4] [C4 E-4 Gb5 Db5 B4 G#4] [D4 F-4 Gb5 C-5 F#+5 Cv6], f 51;
#X msg 96 136 list C4 Ev4 Bbv4 D^5 F+5;
#X connect 3 0 2 0;
#X connect 4 0 3 0;
#X connect 5 0 2 0;
#X connect 6 0 3 0;
#X connect 10 0 3 0;
#X connect 11 0 2 0;
#X connect 12 0 2 0;
#X connect 13 0 3 0;
#X connect 14 0 3 0;
#X connect 15 0 3 0;
#X connect 17 0 3 0;
#X connect 18 0 3 0;
