#N canvas 0 0 925 1132 10;
#X declare -lib else;
#X msg 27 126 1 2 3;
#X msg 17 103 1 [2 3] [4 5];
#X msg 6 74 1 [2 2 3] [3 3 4 5] [1 [2 [3 2]]] 4;
#X text 122 24 Print llll stuff.;
#X obj 3 4 declare -lib else;
#X obj 6 152 bhack.define;
#X obj 6 183 bhack.iterate;
#X obj 6 311 bhack.print;
#X obj 6 232 bhack.collect;
#X obj 167 174 bhack.iterate;
#X obj 167 153 bhack.arithmser 1 50 1;
#X obj 167 131 bng 18 250 50 0 empty empty empty 0 -9 0 10 #fcfcfc #000000 #000000;
#X obj 167 289 bhack.collect;
#X obj 242 198 bng 18 250 50 0 empty empty empty 0 -9 0 10 #fcfcfc #000000 #000000;
#X obj 242 241 bhack.mton 96edo;
#X obj 242 263 bhack.list 1;
#X msg 179 229 reload;
#X obj 242 219 expr random(6000 \, 8400) * 0.01;
#X obj 167 311 bhack.print;
#X connect 0 0 5 0;
#X connect 1 0 5 0;
#X connect 2 0 5 0;
#X connect 5 0 6 0;
#X connect 6 0 8 0;
#X connect 6 1 8 1;
#X connect 8 0 7 0;
#X connect 9 0 12 0;
#X connect 9 1 13 0;
#X connect 10 0 9 0;
#X connect 11 0 10 0;
#X connect 12 0 18 0;
#X connect 13 0 17 0;
#X connect 14 0 15 0;
#X connect 15 0 12 1;
#X connect 16 0 15 0;
#X connect 17 0 14 0;
