#N canvas 0 0 640 480 10;
#X declare -lib else;
#X msg 4 41 1 2 3 4 5;
#X msg 14 64 1 2 3;
#X obj 4 112 bhack.iterate;
#X text 113 5 group data into an llll.;
#X obj 4 89 bhack.define;
#X obj 3 5 declare -lib else;
#X obj 4 157 bhack.collect;
#X obj 4 179 bhack.print;
#X obj 79 135 bhack.op + 20;
#X obj 191 175 bhack.iterate;
#X obj 191 297 bhack.collect;
#X obj 191 368 bhack.chords;
#X msg 211 345 size 400 80;
#X obj 191 91 bng 18 250 50 0 empty empty empty 0 -9 0 10 #ffc7c6 #000000 #000000;
#X obj 211 323 loadbang;
#X obj 371 208 mtof;
#X msg 371 164 60;
#X obj 371 144 loadbang;
#X obj 266 227 bhack.op *, f 18;
#X obj 371 186 nbx 5 16 -1e+37 1e+37 0 0 empty empty empty 0 -9 0 10 #fcfcfc #000000 #000000 0 256;
#X obj 321 79 nbx 5 16 -1e+37 1e+37 0 0 empty empty last\ harmonic 0 -9 0 10 #fcfcfc #000000 #000000 0 256;
#X obj 256 56 nbx 5 16 -1e+37 1e+37 0 0 empty empty 1ยบ\ harmonic 0 -9 0 10 #fcfcfc #000000 #000000 0 256;
#X obj 386 92 nbx 5 16 -1e+37 1e+37 0 0 empty empty step 0 -9 0 10 #fcfcfc #000000 #000000 0 256;
#X obj 266 252 bhack.ftom;
#X obj 305 175 nbx 5 16 -1e+37 1e+37 0 0 empty empty empty 0 -9 0 10 #fcfcfc #000000 #000000 0 256;
#X obj 266 202 bhack.op / 4;
#X msg 189 212 reload;
#X obj 191 120 else/amean, f 33;
#X obj 191 150 bhack.define;
#X obj 266 273 bhack.mton 12edo;
#X obj 109 206 print;
#X connect 0 0 4 0;
#X connect 1 0 4 0;
#X connect 2 0 6 0;
#X connect 2 1 8 0;
#X connect 4 0 2 0;
#X connect 6 0 7 0;
#X connect 8 0 6 1;
#X connect 9 0 10 0;
#X connect 9 1 25 0;
#X connect 10 0 11 0;
#X connect 12 0 11 0;
#X connect 13 0 27 0;
#X connect 14 0 12 0;
#X connect 15 0 18 1;
#X connect 16 0 19 0;
#X connect 17 0 16 0;
#X connect 18 0 23 0;
#X connect 19 0 15 0;
#X connect 20 0 27 2;
#X connect 21 0 27 1;
#X connect 22 0 27 3;
#X connect 23 0 29 0;
#X connect 24 0 25 1;
#X connect 25 0 18 0;
#X connect 26 0 23 0;
#X connect 26 0 29 0;
#X connect 27 0 28 0;
#X connect 27 0 30 0;
#X connect 28 0 9 0;
#X connect 29 0 10 1;
