#N canvas 397 39 445 257 10;
#X msg 137 118 1 2 3;
#X obj 116 144 bhack.mklist;
#X text 59 23 Get the length of an llll (considering the top level only).;
#X obj 116 175 bhack.length;
#X floatatom 116 210 5 0 0 0 - - - 0;
#X msg 127 95 1 [2 3] [4 5];
#X msg 116 66 1 [2 2 3] [3 3 4 5] [1 [2 [3 2]]] 4;
#X connect 0 0 1 0;
#X connect 1 0 3 0;
#X connect 3 0 4 0;
#X connect 5 0 1 0;
#X connect 6 0 1 0;
