#N canvas 0 0 925 1132 10;
#X declare -lib else;
#X obj 3 4 declare -lib else;
#X obj 466 371 bhack.filter midi;
#X obj 171 15 pdlua;
#X obj 43 232 bhack.mton;
#X msg 131 214 reload;
#X obj 38 318 bhack.topd;
#X obj 38 340 print;
#X msg 56 167 60 62;
#X msg 110 173 50;
#X connect 3 0 5 0;
#X connect 4 0 5 0;
#X connect 5 0 6 0;
#X connect 7 0 3 0;
#X connect 8 0 3 0;
