#N canvas 0 0 925 1009 10;
#X declare -lib else;
#X msg 133 125 1 [2 3] [4 5];
#X msg 122 96 1 [2 2 3] [3 3 4 5] [1 [2 [3 2]]] 4;
#X obj 122 205 bhack.iterate;
#X obj 122 235 bhack.topd;
#X obj 122 265 print;
#X msg 143 148 1 2 a 3;
#X text 125 54 Convert llll data to pd atoms.;
#X obj 122 174 bhack.define;
#X obj 9 9 declare -lib else;
#X connect 0 0 7 0;
#X connect 1 0 7 0;
#X connect 2 0 3 0;
#X connect 3 0 4 0;
#X connect 5 0 7 0;
#X connect 7 0 2 0;
