#N canvas 291 68 564 631 10;
#X declare -lib else;
#X msg 97 206 size 400 100;
#X msg 229 344 reload;
#X msg 110 274 clef g;
#X msg 76 127 list C4 Eb4 A+5;
#X msg 63 104 list C4 Eb4 A#+5 C4 Eb4 A#+5 C4 Eb4 A#+5 c4 Eb5;
#X msg 161 274 clef c;
#X msg 209 274 clef f;
#X msg 217 314 clef gf;
#X text 270 314 Not implemented;
#X msg 104 234 size 400 80;
#X msg 50 83 list C4 E-4 D6;
#X obj 299 170 declare -lib else;
#X obj 50 407 bhack.chord;
#X text 254 48 plot notes and stuff;
#X obj 97 183 loadbang;
#X connect 0 0 12 0;
#X connect 1 0 12 0;
#X connect 2 0 12 0;
#X connect 3 0 12 0;
#X connect 4 0 12 0;
#X connect 5 0 12 0;
#X connect 6 0 12 0;
#X connect 7 0 12 0;
#X connect 9 0 12 0;
#X connect 10 0 12 0;
#X connect 14 0 0 0;
