#N canvas 310 106 554 369 10;
#X declare -lib else;
#X msg 137 118 1 2 3;
#X floatatom 116 210 5 0 0 0 - - - 0;
#X msg 127 95 1 [2 3] [4 5];
#X msg 116 66 1 [2 2 3] [3 3 4 5] [1 [2 [3 2]]] 4;
#X obj 116 175 bhack.depth;
#X text 110 24 Get the maximum depth of an llll.;
#X obj 116 144 bhack.define;
#X obj 299 169 declare -lib else;
#X connect 0 0 6 0;
#X connect 2 0 6 0;
#X connect 3 0 6 0;
#X connect 4 0 1 0;
#X connect 6 0 4 0;
