#N canvas 0 0 925 1009 10;
#X declare -lib else;
#X msg 113 160 1 2 3 4 5;
#X msg 123 183 1 2 3;
#X msg 63 63 list [1 [2 2 3] [3 3 4 5] [1 [2 [3 2]]] 4];
#X text 59 23 Generate an llll and output a pointer to it.;
#X obj 63 272 print;
#X obj 63 227 bhack.define;
#X obj 3 4 declare -lib else;
#X msg 80 92 list (1 (2 2 3) (3 3 4 5) (1 (2 (3 2))) 4);
#X msg 98 127 list (1 (2 2 3] (3 3 4 5) (1 (2 (3 2))) 4);
#X msg 204 189 reload;
#X connect 0 0 5 0;
#X connect 1 0 5 0;
#X connect 2 0 5 0;
#X connect 5 0 4 0;
#X connect 7 0 5 0;
#X connect 8 0 5 0;
#X connect 9 0 5 0;
