#N canvas 0 0 925 1132 10;
#X declare -lib else;
#X text 110 24 Plot dddd;
#X obj 4 323 bhack.bpf;
#X obj 4 77 bhack.arithmser 1 1000 1;
#X obj 4 100 bhack.iterate;
#X obj 4 52 bng 18 250 50 0 empty empty empty 0 -9 0 10 #fcfcfc #000000 #000000;
#X obj 79 120 t a a, f 10;
#X obj 182 214 expr 1 / (1 + exp(-$f2 * ($f1 - 0.5)));
#X obj 79 244 bhack.list 2;
#X obj 182 168 bhack.op * 0.001;
#X obj 182 190 bhack.topd;
#X obj 79 214 bhack.op * 0.001;
#X obj 4 294 bhack.collect;
#X obj 407 188 nbx 5 16 -1e+37 1e+37 0 0 empty empty empty 0 -9 0 10 #fcfcfc #000000 #000000 0 256;
#X obj 407 141 loadbang;
#X msg 407 167 10;
#X msg 136 292 reload;
#X obj 302 47 declare -lib else;
#X connect 2 0 3 0;
#X connect 3 0 11 0;
#X connect 3 1 5 0;
#X connect 4 0 2 0;
#X connect 5 0 10 0;
#X connect 5 1 8 0;
#X connect 6 0 7 1;
#X connect 7 0 11 1;
#X connect 8 0 9 0;
#X connect 9 0 6 0;
#X connect 10 0 7 0;
#X connect 11 0 1 0;
#X connect 12 0 6 1;
#X connect 13 0 14 0;
#X connect 14 0 12 0;
#X connect 15 0 1 0;
