#N canvas 0 0 925 1132 10;
#X declare -lib xlab;
#X obj 8 188 bhack.voice;
#X msg 26 161 midiplayback \$1;
#X obj 26 140 tgl 18 0 empty empty empty 0 -9 0 10 #fcfcfc #000000 #000000 0 1;
#X obj 8 74 bhack.define;
#X msg 8 52 list ((4 4) (1 (1 (1 1)) 1 1));
#X obj 8 273 t a b, f 20;
#X msg 169 108 list [C4] [D4] [E4] [F4 A4] [G4 B4];
#X obj 169 139 bhack.define;
#X obj 8 363 bhack.topd;
#X obj 8 323 bhack.filter stem;
#X listbox 8 385 15 0 0 0 - - - 0;
#X obj 119 323 bhack.filter notehead;
#X obj 119 362 bhack.topd;
#X listbox 119 384 15 0 0 0 - - - 0;
#X obj 391 345 bhack.iterate;
#X obj 466 371 bhack.filter midi;
#X obj 8 406 print;
#X obj 119 405 print;
#X obj 391 322 bhack.filter notes;
#X obj 391 400 bhack.collect;
#X listbox 391 443 20 0 0 0 - - - 0;
#X obj 391 464 print;
#X obj 391 422 bhack.topd;
#X obj 253 362 bhack.topd;
#X listbox 253 384 15 0 0 0 - - - 0;
#X obj 253 448 print;
#X obj 253 323 bhack.filter duration;
#X obj 3 4 declare -lib xlab;
#X msg 128 163 play;
#X obj 26 97 loadbang;
#X msg 26 119 0;
#X connect 0 0 5 0;
#X connect 1 0 0 0;
#X connect 2 0 1 0;
#X connect 3 0 0 0;
#X connect 4 0 3 0;
#X connect 5 0 9 0;
#X connect 5 0 11 0;
#X connect 5 0 18 0;
#X connect 5 0 26 0;
#X connect 6 0 7 0;
#X connect 7 0 0 1;
#X connect 8 0 10 0;
#X connect 9 0 8 0;
#X connect 10 0 16 0;
#X connect 11 0 12 0;
#X connect 12 0 13 0;
#X connect 13 0 17 0;
#X connect 14 0 19 0;
#X connect 14 1 15 0;
#X connect 15 0 19 1;
#X connect 18 0 14 0;
#X connect 19 0 22 0;
#X connect 20 0 21 0;
#X connect 22 0 20 0;
#X connect 23 0 24 0;
#X connect 24 0 25 0;
#X connect 26 0 23 0;
#X connect 28 0 0 0;
#X connect 29 0 30 0;
#X connect 30 0 2 0;
