#N canvas 0 0 1860 1009 10;
#X declare -lib else;
#X obj 5 4 declare -lib else;
#X obj 5 113 bhack.define;
#X msg 158 141 reload;
#X obj 158 118 spigot;
#X obj 191 93 tgl 18 0 empty empty empty 0 -9 0 10 #fcfcfc #000000 #000000 0 1;
#X obj 5 366 bhack.voice;
#X msg 45 196 play;
#N canvas 0 0 925 1009 score 0;
#X obj 5 157 else/plaits~ -model 11 -midi;
#X obj 5 103 pack f f, f 18;
#X obj 5 179 dac~, f 15;
#X msg 130 131 tr_active 1;
#X obj 5 8 inlet;
#X obj 160 84 loadbang;
#X obj 5 81 makenote 60 10, f 18;
#X obj 5 30 unpack;
#X connect 0 0 2 0;
#X connect 0 1 2 1;
#X connect 1 0 0 0;
#X connect 3 0 0 0;
#X connect 4 0 7 0;
#X connect 5 0 3 0;
#X connect 6 0 1 0;
#X connect 6 1 1 1;
#X connect 7 0 6 0;
#X connect 7 1 6 1;
#X restore 5 463 pd score;
#X msg 35 173 save /home/neimog/Documents/Git/pd-bhack/score.svg;
#X text 258 64 WRONG: Pausas (dobro);
#X text 257 78 WRONG: Wrong tuplets (Open|Closing brackets);
#X msg 153 194 clef percussion;
#X msg 150 268 next;
#X obj 398 174 bhack.iterate;
#X obj 398 153 bhack.arithmser 1 50 1;
#X obj 398 131 bng 18 250 50 0 empty empty empty 0 -9 0 10 #fcfcfc #000000 #000000;
#X obj 398 289 bhack.collect;
#X obj 473 198 bng 18 250 50 0 empty empty empty 0 -9 0 10 #fcfcfc #000000 #000000;
#X obj 473 241 bhack.mton 96edo;
#X obj 473 263 bhack.list 1;
#X msg 410 229 reload;
#X obj 473 219 expr random(6000 \, 8400) * 0.01;
#X msg 5 25 list ((4 4) (1 (1 (2 1 1)) 1 1));
#X obj 403 101 loadbang;
#X msg 26 65 list ((4 4) (1 1 2 1 1 (2 (1 1 1 1))));
#X msg 17 46 list ((4 4) ((1 (1 1 1)) (1 (1 1 1 1)) (1 (1 1 1 1 1)) (1 (1 1 1 1 1 1)))), f 76;
#X msg 27 137 size 450 80;
#X msg 160 322 list ((4 4) (2 (2 (1 (1 (1 1 1 1 1)) 1))));
#X obj 241 271 bhack.define;
#X msg 242 226 list [C4];
#X msg 176 216 clef g;
#X obj 398 452 bng 18 250 50 0 empty empty empty 0 -9 0 10 #fcfcfc #000000 #000000;
#X msg 62 217 bpm 120;
#X obj 5 87 t a b b b, f 26;
#X connect 1 0 5 0;
#X connect 2 0 5 0;
#X connect 3 0 2 0;
#X connect 4 0 3 1;
#X connect 5 0 7 0;
#X connect 5 1 31 0;
#X connect 6 0 5 0;
#X connect 8 0 5 0;
#X connect 11 0 5 0;
#X connect 12 0 5 0;
#X connect 13 0 16 0;
#X connect 13 1 17 0;
#X connect 14 0 13 0;
#X connect 15 0 14 0;
#X connect 16 0 5 1;
#X connect 17 0 21 0;
#X connect 18 0 19 0;
#X connect 19 0 16 1;
#X connect 20 0 19 0;
#X connect 21 0 18 0;
#X connect 22 0 33 0;
#X connect 23 0 15 0;
#X connect 24 0 33 0;
#X connect 25 0 33 0;
#X connect 26 0 5 0;
#X connect 28 0 5 1;
#X connect 29 0 28 0;
#X connect 30 0 5 0;
#X connect 31 0 22 0;
#X connect 32 0 5 0;
#X connect 33 0 1 0;
#X connect 33 1 3 0;
#X connect 33 2 6 0;
#X connect 33 3 15 0;
