#N canvas 0 0 925 1009 10;
#X declare -lib else;
#X obj 5 4 declare -lib else;
#X obj 5 162 bhack.define;
#X msg 158 190 reload;
#X obj 5 136 t a b, f 26;
#X msg 27 186 size 400 80;
#X obj 158 167 spigot;
#X obj 191 142 tgl 18 0 empty empty empty 0 -9 0 10 #fcfcfc #000000 #000000 0 1;
#X obj 5 255 bhack.voice;
#N canvas 0 0 925 1009 score 0;
#X obj 12 213 else/plaits~ -model 11 -midi;
#X obj 12 159 pack f f, f 18;
#X obj 12 235 dac~, f 15;
#X msg 137 187 tr_active 1;
#X obj 5 8 inlet;
#X obj 167 140 loadbang;
#X obj 12 137 makenote 60 10, f 18;
#X msg 5 30 70;
#X connect 0 0 2 0;
#X connect 0 1 2 1;
#X connect 1 0 0 0;
#X connect 3 0 0 0;
#X connect 4 0 7 0;
#X connect 5 0 3 0;
#X connect 6 0 1 0;
#X connect 6 1 1 1;
#X connect 7 0 6 0;
#X restore 5 348 pd score;
#X text 140 92 WRONG: Pausas (dobro);
#X text 140 107 WRONG: Wrong tuplets (Open|Closing brackets);
#X msg 5 27 list ((6 8) ((3 (1 1 1)) 3));
#X msg 26 56 list ((4 4) ((1 ( 1 -1 (1 (1 1)) 1))));
#X connect 1 0 7 0;
#X connect 2 0 7 0;
#X connect 3 0 1 0;
#X connect 3 1 5 0;
#X connect 4 0 7 0;
#X connect 5 0 2 0;
#X connect 6 0 5 1;
#X connect 7 0 8 0;
#X connect 11 0 3 0;
#X connect 12 0 3 0;
