#N canvas 0 0 1860 1009 10;
#X declare -lib else;
#X obj 5 4 declare -lib else;
#N canvas 0 0 925 1009 WRONG 0;
#X obj 12 312 bhack.define;
#X msg 12 15 list [[4.0 4.0] [[1.0 [-1.0 1.0]] [2.0 [1.0 1 1 1.0]] [1.0 [1.0 -1 1 1.0]] [2.0 [1.0 -1 1 -1.0]]]];
#X obj 12 334 outlet;
#X connect 0 0 2 0;
#X connect 1 0 0 0;
#X restore 118 3 pd WRONG;
#X obj 3 237 bhack.voice;
#X text 172 2 NEED FIXES;
#N canvas 0 0 925 1009 generator 0;
#X msg 12 214 play;
#X obj 225 227 bhack.iterate;
#X obj 225 206 bhack.arithmser 1 50 1;
#X obj 225 184 bng 18 250 50 0 empty empty empty 0 -9 0 10 #fcfcfc #000000 #000000;
#X obj 225 342 bhack.collect;
#X obj 300 251 bng 18 250 50 0 empty empty empty 0 -9 0 10 #fcfcfc #000000 #000000;
#X obj 300 294 bhack.mton 96edo;
#X obj 300 316 bhack.list 1;
#X msg 237 282 reload;
#N canvas 0 0 925 1009 measure 0;
#X obj 124 126 bhack.iterate;
#X obj 124 381 bhack.collect;
#X obj 24 438 bhack.list 2, f 17;
#X obj 24 245 bhack.define;
#X obj 24 460 bhack.list 1;
#X obj 124 105 bhack.arithmser 1 1;
#X obj 24 57 t b b b, f 34;
#X obj 24 11 inlet;
#X obj 293 288 bhack.iterate, f 19;
#X obj 293 252 bhack.arithmser 1 1;
#X obj 199 348 bhack.list 2;
#X obj 199 178 t b b b, f 32;
#X obj 388 223 + 1;
#X obj 293 316 bhack.collect;
#X obj 84 11 bng 18 250 50 0 empty empty empty 0 -9 0 10 #fcfcfc #000000 #000000;
#X obj 404 311 b;
#X obj 199 313 bhack.define;
#X msg 216 252 reload;
#X obj 24 482 outlet;
#X msg 24 211 list 4 4;
#X obj 388 201 random 1;
#X obj 404 332 expr if(random(0 \, 5) == 1 \, random(-3 \, -1) \, random(1 \, 3));
#X text 130 15 This create random measures;
#X text 28 267 This is the time signature, f 16;
#X text 425 289 Here inside each subdivision;
#X text 212 126 Here we can have 3-6 subdivision (first level) of subdivision \, in case of 4 the measure will not be a tuplet \, otherwise will be a measure tuplet;
#X msg 199 209 1;
#X obj 225 81 expr random($f2 \, $f3);
#X obj 287 56 unpack f f;
#X obj 287 33 r measure;
#X connect 0 0 1 0;
#X connect 0 1 11 0;
#X connect 1 0 2 1;
#X connect 2 0 4 0;
#X connect 3 0 2 0;
#X connect 4 0 18 0;
#X connect 5 0 0 0;
#X connect 6 0 19 0;
#X connect 6 1 5 0;
#X connect 6 2 27 0;
#X connect 7 0 6 0;
#X connect 8 0 13 0;
#X connect 8 1 15 0;
#X connect 9 0 8 0;
#X connect 10 0 1 1;
#X connect 11 0 26 0;
#X connect 11 1 9 0;
#X connect 11 2 20 0;
#X connect 12 0 9 1;
#X connect 13 0 10 1;
#X connect 14 0 6 0;
#X connect 15 0 21 0;
#X connect 16 0 10 0;
#X connect 17 0 16 0;
#X connect 19 0 3 0;
#X connect 20 0 12 0;
#X connect 21 0 13 1;
#X connect 26 0 16 0;
#X connect 27 0 5 1;
#X connect 28 0 27 1;
#X connect 28 1 27 2;
#X connect 29 0 28 0;
#X restore 12 130 pd measure;
#X obj 12 164 t b a b, f 36;
#X obj 80 92 bng 18 250 50 0 empty empty empty 0 -9 0 10 #fcfcfc #000000 #000000;
#X obj 12 92 spigot, f 10;
#X obj 300 272 expr random($f2 \, $f3) * 0.01;
#X obj 382 143 r low;
#X obj 466 238 r up;
#X obj 12 337 outlet;
#X obj 225 367 outlet;
#X obj 80 71 sel 1;
#X obj 69 14 r on;
#X obj 28 40 inlet;
#X obj 382 165 nbx 5 16 -1e+37 1e+37 0 0 empty empty empty 0 -9 0 10 #fcfcfc #000000 #000000 0 256;
#X obj 81 256 loadbang;
#X msg 81 278 size 600 80;
#X connect 0 0 16 0;
#X connect 1 0 4 0;
#X connect 1 1 5 0;
#X connect 2 0 1 0;
#X connect 3 0 2 0;
#X connect 4 0 17 0;
#X connect 5 0 13 0;
#X connect 6 0 7 0;
#X connect 7 0 4 1;
#X connect 8 0 7 0;
#X connect 9 0 10 0;
#X connect 10 0 0 0;
#X connect 10 1 16 0;
#X connect 10 2 3 0;
#X connect 11 0 9 0;
#X connect 12 0 9 0;
#X connect 13 0 6 0;
#X connect 14 0 13 1;
#X connect 14 0 21 0;
#X connect 15 0 13 2;
#X connect 18 0 11 0;
#X connect 19 0 12 1;
#X connect 19 0 18 0;
#X connect 20 0 12 0;
#X connect 22 0 23 0;
#X connect 23 0 16 0;
#X restore 3 205 pd generator;
#X f 99;
#N canvas 0 0 925 1009 player 0;
#X obj 5 103 pack f f, f 18;
#X obj 5 179 dac~, f 15;
#X msg 130 131 tr_active 1;
#X obj 5 8 inlet;
#X obj 160 84 loadbang;
#X obj 5 81 makenote 60 10, f 18;
#X obj 5 30 unpack;
#X obj 5 157 else/plaits~ -model 11 -midi;
#X connect 0 0 7 0;
#X connect 2 0 7 0;
#X connect 3 0 6 0;
#X connect 4 0 2 0;
#X connect 5 0 0 0;
#X connect 5 1 0 1;
#X connect 6 0 5 0;
#X connect 6 1 5 1;
#X connect 7 0 1 0;
#X connect 7 1 1 1;
#X restore 3 320 pd player;
#X obj 4 394 bhack.voice;
#N canvas 0 0 925 1009 generator 0;
#X msg 12 214 play;
#X obj 225 227 bhack.iterate;
#X obj 225 206 bhack.arithmser 1 50 1;
#X obj 225 184 bng 18 250 50 0 empty empty empty 0 -9 0 10 #fcfcfc #000000 #000000;
#X obj 225 342 bhack.collect;
#X obj 300 251 bng 18 250 50 0 empty empty empty 0 -9 0 10 #fcfcfc #000000 #000000;
#X obj 300 294 bhack.mton 96edo;
#X obj 300 316 bhack.list 1;
#X msg 237 282 reload;
#N canvas 0 0 925 1009 measure 0;
#X obj 124 126 bhack.iterate;
#X obj 124 381 bhack.collect;
#X obj 24 438 bhack.list 2, f 17;
#X obj 24 245 bhack.define;
#X obj 24 460 bhack.list 1;
#X obj 124 105 bhack.arithmser 1 1;
#X obj 24 57 t b b b, f 34;
#X obj 24 11 inlet;
#X obj 293 288 bhack.iterate, f 19;
#X obj 293 252 bhack.arithmser 1 1;
#X obj 199 348 bhack.list 2;
#X obj 199 178 t b b b, f 32;
#X obj 388 223 + 1;
#X obj 293 316 bhack.collect;
#X obj 84 11 bng 18 250 50 0 empty empty empty 0 -9 0 10 #fcfcfc #000000 #000000;
#X obj 404 311 b;
#X obj 199 313 bhack.define;
#X msg 216 252 reload;
#X obj 24 482 outlet;
#X msg 24 211 list 4 4;
#X obj 388 201 random 1;
#X obj 404 332 expr if(random(0 \, 5) == 1 \, random(-3 \, -1) \, random(1 \, 3));
#X text 130 15 This create random measures;
#X text 28 267 This is the time signature, f 16;
#X text 425 289 Here inside each subdivision;
#X text 212 126 Here we can have 3-6 subdivision (first level) of subdivision \, in case of 4 the measure will not be a tuplet \, otherwise will be a measure tuplet;
#X msg 199 209 1;
#X obj 225 81 expr random($f2 \, $f3);
#X obj 287 56 unpack f f;
#X obj 326 16 r measure;
#X connect 0 0 1 0;
#X connect 0 1 11 0;
#X connect 1 0 2 1;
#X connect 2 0 4 0;
#X connect 3 0 2 0;
#X connect 4 0 18 0;
#X connect 5 0 0 0;
#X connect 6 0 19 0;
#X connect 6 1 5 0;
#X connect 6 2 27 0;
#X connect 7 0 6 0;
#X connect 8 0 13 0;
#X connect 8 1 15 0;
#X connect 9 0 8 0;
#X connect 10 0 1 1;
#X connect 11 0 26 0;
#X connect 11 1 9 0;
#X connect 11 2 20 0;
#X connect 12 0 9 1;
#X connect 13 0 10 1;
#X connect 14 0 6 0;
#X connect 15 0 21 0;
#X connect 16 0 10 0;
#X connect 17 0 16 0;
#X connect 19 0 3 0;
#X connect 20 0 12 0;
#X connect 21 0 13 1;
#X connect 26 0 16 0;
#X connect 27 0 5 1;
#X connect 28 0 27 1;
#X connect 28 1 27 2;
#X connect 29 0 28 0;
#X restore 12 130 pd measure;
#X obj 12 164 t b a b, f 36;
#X obj 80 92 bng 18 250 50 0 empty empty empty 0 -9 0 10 #fcfcfc #000000 #000000;
#X obj 12 92 spigot, f 10;
#X obj 300 272 expr random($f2 \, $f3) * 0.01;
#X obj 383 239 r low;
#X obj 466 238 r up;
#X obj 12 337 outlet;
#X obj 225 367 outlet;
#X obj 80 71 sel 1;
#X obj 69 14 r on;
#X obj 28 40 inlet;
#X msg 91 284 size 600 80;
#X obj 102 232 loadbang;
#X connect 0 0 16 0;
#X connect 1 0 4 0;
#X connect 1 1 5 0;
#X connect 2 0 1 0;
#X connect 3 0 2 0;
#X connect 4 0 17 0;
#X connect 5 0 13 0;
#X connect 6 0 7 0;
#X connect 7 0 4 1;
#X connect 8 0 7 0;
#X connect 9 0 10 0;
#X connect 10 0 0 0;
#X connect 10 1 16 0;
#X connect 10 2 3 0;
#X connect 11 0 9 0;
#X connect 12 0 9 0;
#X connect 13 0 6 0;
#X connect 14 0 13 1;
#X connect 15 0 13 2;
#X connect 18 0 11 0;
#X connect 19 0 12 1;
#X connect 19 0 18 0;
#X connect 20 0 12 0;
#X connect 21 0 16 0;
#X connect 22 0 21 0;
#X restore 4 362 pd generator;
#X f 99;
#N canvas 0 0 925 1009 player 0;
#X obj 5 103 pack f f, f 18;
#X obj 5 179 dac~, f 15;
#X msg 130 131 tr_active 1;
#X obj 5 8 inlet;
#X obj 160 84 loadbang;
#X obj 5 81 makenote 60 10, f 18;
#X obj 5 30 unpack;
#X obj 5 157 else/plaits~ -model 11 -midi;
#X connect 0 0 7 0;
#X connect 2 0 7 0;
#X connect 3 0 6 0;
#X connect 4 0 2 0;
#X connect 5 0 0 0;
#X connect 5 1 0 1;
#X connect 6 0 5 0;
#X connect 6 1 5 1;
#X connect 7 0 1 0;
#X connect 7 1 1 1;
#X restore 4 477 pd player;
#X obj 10 31 tgl 18 0 empty empty empty 0 -9 0 10 #fcfcfc #000000 #000000 0 1;
#X obj 10 54 s on;
#X obj 596 321 s metro;
#X obj 754 6 r metro;
#X obj 805 76 nbx 5 16 -1e+37 1e+37 0 0 empty empty empty 0 -9 0 10 #fcfcfc #000000 #000000 0 256;
#X obj 754 104 f;
#X obj 805 27 sel 1;
#X obj 805 6 r on;
#X msg 805 49 7200;
#X obj 728 31 bng 18 250 50 0 empty empty empty 0 -9 0 10 #fcfcfc #000000 #000000;
#X obj 754 151 expr if($f1 > 10000 \, 10000 \, $f1);
#X obj 754 129 + 200;
#X obj 543 7 r metro;
#X obj 594 77 nbx 5 16 -1e+37 1e+37 0 0 empty empty empty 0 -9 0 10 #fcfcfc #000000 #000000 0 256;
#X obj 543 105 f;
#X obj 594 28 sel 1;
#X obj 594 7 r on;
#X obj 517 32 bng 18 250 50 0 empty empty empty 0 -9 0 10 #fcfcfc #000000 #000000;
#X obj 543 152 expr if($f1 > 10000 \, 10000 \, $f1);
#X obj 754 173 s up;
#X msg 594 50 6000;
#X obj 543 130 + 130;
#X obj 102 163 s measure;
#X obj 102 139 pack f f, f 14;
#X obj 102 112 nbx 5 16 -1e+37 1e+37 0 0 empty empty empty 0 -9 0 10 #fcfcfc #000000 #000000 0 256;
#X obj 183 113 nbx 5 16 -1e+37 1e+37 0 0 empty empty empty 0 -9 0 10 #fcfcfc #000000 #000000 0 256;
#X obj 543 174 s low;
#X obj 265 89 bng 18 250 50 0 empty empty empty 0 -9 0 10 #fcfcfc #000000 #000000;
#X obj 265 67 sel 10000;
#X obj 265 112 else/count;
#X obj 265 134 nbx 5 16 -1e+37 1e+37 0 0 empty empty empty 0 -9 0 10 #fcfcfc #000000 #000000 0 256;
#X msg 348 72 0;
#X obj 265 155 sel 3;
#N canvas 0 0 925 1009 (subpatch) 0;
#X obj 35 8 r metro;
#X obj 86 78 nbx 5 16 -1e+37 1e+37 0 0 empty empty empty 0 -9 0 10 #fcfcfc #000000 #000000 0 256;
#X obj 35 106 f;
#X obj 86 29 sel 1;
#X obj 86 8 r on;
#X obj 9 33 bng 18 250 50 0 empty empty empty 0 -9 0 10 #fcfcfc #000000 #000000;
#X msg 86 51 3;
#X obj 35 175 outlet;
#X obj 35 131 + 0.5;
#X obj 260 11 r metro;
#X obj 311 81 nbx 5 16 -1e+37 1e+37 0 0 empty empty empty 0 -9 0 10 #fcfcfc #000000 #000000 0 256;
#X obj 260 109 f;
#X obj 311 32 sel 1;
#X obj 311 11 r on;
#X obj 234 36 bng 18 250 50 0 empty empty empty 0 -9 0 10 #fcfcfc #000000 #000000;
#X obj 260 178 outlet;
#X msg 311 54 5;
#X obj 260 134 + 1;
#X obj 260 156 expr if($f1 > 15 \, 15 \, $f1);
#X obj 35 153 expr if($f1 > 10 \, 10 \, $f1);
#X connect 0 0 2 0;
#X connect 1 0 2 1;
#X connect 2 0 8 0;
#X connect 3 0 6 0;
#X connect 4 0 3 0;
#X connect 5 0 2 0;
#X connect 6 0 1 0;
#X connect 8 0 19 0;
#X connect 9 0 11 0;
#X connect 10 0 11 1;
#X connect 11 0 17 0;
#X connect 12 0 16 0;
#X connect 13 0 12 0;
#X connect 14 0 11 0;
#X connect 16 0 10 0;
#X connect 17 0 18 0;
#X connect 18 0 10 0;
#X connect 18 0 15 0;
#X connect 19 0 1 0;
#X connect 19 0 7 0;
#X restore 102 82 pd;
#X f 15;
#X connect 2 0 5 0;
#X connect 2 1 4 0;
#X connect 2 1 11 0;
#X connect 4 0 2 0;
#X connect 4 1 2 1;
#X connect 6 0 8 0;
#X connect 6 1 7 0;
#X connect 7 0 6 0;
#X connect 7 1 6 1;
#X connect 9 0 10 0;
#X connect 12 0 14 0;
#X connect 13 0 14 1;
#X connect 14 0 20 0;
#X connect 15 0 17 0;
#X connect 16 0 15 0;
#X connect 17 0 13 0;
#X connect 18 0 14 0;
#X connect 19 0 13 0;
#X connect 19 0 28 0;
#X connect 20 0 19 0;
#X connect 21 0 23 0;
#X connect 22 0 23 1;
#X connect 23 0 30 0;
#X connect 24 0 29 0;
#X connect 24 0 40 0;
#X connect 25 0 24 0;
#X connect 26 0 23 0;
#X connect 27 0 22 0;
#X connect 27 0 35 0;
#X connect 27 0 37 0;
#X connect 29 0 22 0;
#X connect 30 0 27 0;
#X connect 32 0 31 0;
#X connect 33 0 32 0;
#X connect 34 0 32 1;
#X connect 36 0 38 0;
#X connect 37 0 36 0;
#X connect 38 0 39 0;
#X connect 39 0 41 0;
#X connect 40 0 38 0;
#X connect 41 0 9 0;
#X connect 42 0 33 0;
#X connect 42 1 34 0;
