#N canvas 0 0 925 1009 10;
#X declare -lib else;
#X obj 5 4 declare -lib else;
#X obj 5 352 bhack.voice;
#X msg 5 186 play;
#N canvas 0 0 925 1009 score 0;
#X obj 5 103 pack f f, f 18;
#X obj 5 179 dac~, f 15;
#X msg 130 131 tr_active 1;
#X obj 5 8 inlet;
#X obj 160 84 loadbang;
#X obj 5 81 makenote 60 10, f 18;
#X obj 5 30 unpack;
#X obj 5 157 else/plaits~ -model 1 -midi;
#X connect 0 0 7 0;
#X connect 2 0 7 0;
#X connect 3 0 6 0;
#X connect 4 0 2 0;
#X connect 5 0 0 0;
#X connect 5 1 0 1;
#X connect 6 0 5 0;
#X connect 6 1 5 1;
#X connect 7 0 1 0;
#X connect 7 1 1 1;
#X restore 5 436 pd score;
#X obj 164 204 bhack.iterate;
#X obj 164 183 bhack.arithmser 1 50 1;
#X obj 164 161 bng 18 250 50 0 empty empty empty 0 -9 0 10 #fcfcfc #000000 #000000;
#X obj 164 319 bhack.collect;
#X obj 239 228 bng 18 250 50 0 empty empty empty 0 -9 0 10 #fcfcfc #000000 #000000;
#X obj 239 271 bhack.mton 96edo;
#X obj 239 293 bhack.list 1;
#X msg 176 259 reload;
#N canvas 0 0 925 1009 measure 0;
#X obj 124 126 bhack.iterate;
#X obj 124 346 bhack.collect;
#X obj 24 374 bhack.list 2, f 17;
#X obj 24 245 bhack.define;
#X obj 24 396 bhack.list 1;
#X obj 124 105 bhack.arithmser 1 1;
#X obj 24 57 t b b b, f 34;
#X obj 24 11 inlet;
#X obj 199 174 random 2;
#X msg 24 175 list 4 8;
#X obj 199 196 + 1;
#X obj 275 248 bhack.iterate, f 19;
#X obj 275 227 bhack.arithmser 1 1;
#X obj 181 304 bhack.list 2;
#X obj 199 150 t b b b, f 26;
#X obj 352 197 + 1;
#X obj 275 276 bhack.collect;
#X obj 84 11 bng 18 250 50 0 empty empty empty 0 -9 0 10 #fcfcfc #000000 #000000;
#X obj 386 271 b;
#X obj 181 269 bhack.define;
#X msg 216 224 reload;
#X obj 41 117 print;
#X obj 225 81 expr random(3 \, 5);
#X obj 352 175 random 3;
#X obj 386 292 expr if(random(0 \, 5) == 1 \, -1 \, 1);
#X obj 24 418 outlet;
#X connect 0 0 1 0;
#X connect 0 1 14 0;
#X connect 1 0 2 1;
#X connect 2 0 4 0;
#X connect 3 0 2 0;
#X connect 4 0 25 0;
#X connect 5 0 0 0;
#X connect 6 0 9 0;
#X connect 6 0 21 0;
#X connect 6 1 5 0;
#X connect 6 2 22 0;
#X connect 7 0 6 0;
#X connect 8 0 10 0;
#X connect 9 0 3 0;
#X connect 10 0 19 0;
#X connect 11 0 16 0;
#X connect 11 1 18 0;
#X connect 12 0 11 0;
#X connect 13 0 1 1;
#X connect 14 0 8 0;
#X connect 14 1 12 0;
#X connect 14 2 23 0;
#X connect 15 0 12 1;
#X connect 16 0 13 1;
#X connect 17 0 6 0;
#X connect 18 0 24 0;
#X connect 19 0 13 0;
#X connect 20 0 19 0;
#X connect 22 0 5 1;
#X connect 23 0 15 0;
#X connect 24 0 16 1;
#X restore 5 110 pd measure;
#X msg 79 232 reload;
#X obj 398 436 s again;
#X obj 5 26 r again;
#X obj 5 136 t b a b, f 27;
#X msg 73 281 size 400 80;
#X obj 58 27 bng 18 250 50 0 empty empty empty 0 -9 0 10 #fcfcfc #000000 #000000;
#X obj 239 249 expr random(5500 \, 7500) * 0.01;
#X obj 5 70 spigot;
#X obj 81 27 tgl 18 0 empty empty empty 0 -9 0 10 #fcfcfc #000000 #000000 0 1;
#X msg 69 206 bpm 60;
#X connect 1 0 3 0;
#X connect 1 1 14 0;
#X connect 2 0 1 0;
#X connect 4 0 7 0;
#X connect 4 1 8 0;
#X connect 5 0 4 0;
#X connect 6 0 5 0;
#X connect 7 0 1 1;
#X connect 8 0 19 0;
#X connect 9 0 10 0;
#X connect 10 0 7 1;
#X connect 11 0 10 0;
#X connect 12 0 16 0;
#X connect 13 0 1 0;
#X connect 15 0 20 0;
#X connect 16 0 2 0;
#X connect 16 1 1 0;
#X connect 16 2 6 0;
#X connect 17 0 1 0;
#X connect 18 0 12 0;
#X connect 19 0 9 0;
#X connect 20 0 12 0;
#X connect 21 0 20 1;
#X connect 22 0 1 0;
