#N canvas 0 0 925 1009 10;
#X declare -lib else;
#X obj 5 4 declare -lib else;
#X obj 5 352 bhack.voice;
#N canvas 0 0 925 1009 score 0;
#X obj 5 103 pack f f, f 18;
#X obj 5 179 dac~, f 15;
#X msg 130 131 tr_active 1;
#X obj 5 8 inlet;
#X obj 160 84 loadbang;
#X obj 5 81 makenote 60 10, f 18;
#X obj 5 30 unpack;
#X obj 5 157 else/plaits~ -model 1 -midi;
#X connect 0 0 7 0;
#X connect 2 0 7 0;
#X connect 3 0 6 0;
#X connect 4 0 2 0;
#X connect 5 0 0 0;
#X connect 5 1 0 1;
#X connect 6 0 5 0;
#X connect 6 1 5 1;
#X connect 7 0 1 0;
#X connect 7 1 1 1;
#X restore 5 436 pd score;
#X obj 398 436 s again;
#X obj 5 263 bhack.define;
#X msg 16 295 reload;
#X msg 22 319 play;
#X obj 307 239 bhack.define;
#X msg 278 192 list [C5] [D5] [E5] [F5];
#X msg 6 239 list ((4 4) (1_ (1 (1 1 1_)) 1 1_));
#X connect 1 0 2 0;
#X connect 1 1 3 0;
#X connect 4 0 1 0;
#X connect 5 0 1 0;
#X connect 6 0 1 0;
#X connect 7 0 1 1;
#X connect 8 0 7 0;
#X connect 9 0 4 0;
